<?xml version="1.0" encoding="UTF-8"?>
<svg id="Layer_1" data-name="Layer 1" xmlns="http://www.w3.org/2000/svg" width="92.08" height="84.01" viewBox="0 0 92.08 84.01">
  <defs>
    <style>
      .cls-1 {
        fill: #bdff00;
      }
    </style>
  </defs>
  <path d="M26.57,82.42l-2.1-50.95c-.09-2.19-2.41-3.55-4.36-2.56L3.31,37.4l-3.31-4.98L38.11,0l4.95,2.55-3.1,35.94c-.25,2.85,3.26,4.4,5.2,2.3L82.55,.43l4.68,3.75L32.05,84.01l-5.48-1.59Z"/>
  <path class="cls-1" d="M31.42,82.42l-2.1-50.95c-.09-2.19-2.41-3.55-4.36-2.56l-16.8,8.49-3.31-4.98L42.96,0l4.95,2.55-3.1,35.94c-.25,2.85,3.26,4.4,5.2,2.3L87.4,.43l4.68,3.75L36.9,84.01l-5.48-1.59Z"/>
</svg>